<svg xmlns="http://www.w3.org/2000/svg" viewBox="0 0 64 64" fill="none">
  <path d="M30 22C20 8 6 17 10 30c3 9 15 7 20-8Z" fill="#dbeafe"/>
  <path d="M34 22C44 8 58 17 54 30c-3 9-15 7-20-8Z" fill="#dbeafe"/>
  <path d="M27 15c-3-6-9-7-13-3M37 15c3-6 9-7 13-3" stroke="#f8fafc" stroke-width="3" stroke-linecap="round"/>
  <circle cx="14" cy="12" r="2.5" fill="#f8fafc"/>
  <circle cx="50" cy="12" r="2.5" fill="#f8fafc"/>
  <ellipse cx="32" cy="36" rx="18" ry="23" fill="#f59e0b"/>
  <path d="M17 28c8 4 22 4 30 0M14 39c10 5 26 5 36 0M21 51c7 3 15 3 22 0" stroke="#0f1117" stroke-width="5" stroke-linecap="round"/>
  <circle cx="26" cy="24" r="2.4" fill="#0f1117"/>
  <circle cx="38" cy="24" r="2.4" fill="#0f1117"/>
  <rect x="37" y="35" width="22" height="25" rx="5" fill="#6c63ff" stroke="#0f1117" stroke-width="3"/>
  <rect x="42" y="31" width="12" height="7" rx="3.5" fill="#f8fafc" stroke="#0f1117" stroke-width="2.5"/>
  <rect x="41" y="41" width="14" height="14" rx="2.5" fill="#f8fafc"/>
  <path d="M44 46h8M44 51h6" stroke="#94a3b8" stroke-width="2" stroke-linecap="round"/>
</svg>
